<svg width="774" height="843" viewBox="0 0 774 843" fill="none" xmlns="http://www.w3.org/2000/svg">
<rect x="0.0522461" y="0.523682" width="773.705" height="686.747" rx="28" fill="#09B3AF"/>
<path d="M188.199 842.845V685.815H445.373L188.199 842.845Z" fill="#09B3AF"/>
<path d="M83 375.916V99L308 237.458V329.764L158 237.458V422.069L83 375.916Z" fill="white"/>
<path d="M308 237.458L533 99V375.916L383 468.222L308 422.069L458 329.764V237.458L308 329.764V237.458Z" fill="#DADFE2"/>
<path d="M308 422.069V514.375L458 606.68V514.375L308 422.069Z" fill="white"/>
<path d="M458 606.68L683 468.222V283.611L608 329.764V422.069L458 514.375V606.68ZM608 237.458V145.153L683 99V191.306L608 237.458Z" fill="#DADFE2"/>
</svg>
